<mxfile host="app.diagrams.net" agent="Mozilla/5.0 (X11; Ubuntu; Linux x86_64; rv:131.0) Gecko/20100101 Firefox/131.0" version="24.8.3">
  <diagram name="PÃ¡gina-1" id="_TZk-VBSfBG-fOWsmnnx">
    <mxGraphModel grid="1" page="1" gridSize="10" guides="1" tooltips="1" connect="1" arrows="1" fold="1" pageScale="1" pageWidth="827" pageHeight="1169" math="0" shadow="0">
      <root>
        <mxCell id="0" />
        <mxCell id="1" parent="0" />
        <mxCell id="JfAFxv9XHzVIEhKvCDaF-9" style="edgeStyle=orthogonalEdgeStyle;rounded=0;orthogonalLoop=1;jettySize=auto;html=1;entryX=0;entryY=0.5;entryDx=0;entryDy=0;fillColor=#f8cecc;strokeColor=#b85450;" edge="1" parent="1" source="JfAFxv9XHzVIEhKvCDaF-1" target="JfAFxv9XHzVIEhKvCDaF-2">
          <mxGeometry relative="1" as="geometry" />
        </mxCell>
        <mxCell id="1YkeTyR81IGIItmo_7Jy-1" value="1" style="edgeLabel;html=1;align=center;verticalAlign=middle;resizable=0;points=[];" connectable="0" vertex="1" parent="JfAFxv9XHzVIEhKvCDaF-9">
          <mxGeometry x="0.248" y="1" relative="1" as="geometry">
            <mxPoint x="-1" y="-9" as="offset" />
          </mxGeometry>
        </mxCell>
        <mxCell id="JfAFxv9XHzVIEhKvCDaF-1" value="1.1" style="ellipse;whiteSpace=wrap;html=1;aspect=fixed;" vertex="1" parent="1">
          <mxGeometry x="40" y="210" width="40" height="40" as="geometry" />
        </mxCell>
        <mxCell id="JfAFxv9XHzVIEhKvCDaF-13" style="edgeStyle=orthogonalEdgeStyle;rounded=0;orthogonalLoop=1;jettySize=auto;html=1;entryX=0;entryY=0.5;entryDx=0;entryDy=0;fillColor=#f8cecc;strokeColor=#b85450;" edge="1" parent="1" source="JfAFxv9XHzVIEhKvCDaF-2" target="JfAFxv9XHzVIEhKvCDaF-3">
          <mxGeometry relative="1" as="geometry" />
        </mxCell>
        <mxCell id="1YkeTyR81IGIItmo_7Jy-2" value="3" style="edgeLabel;html=1;align=center;verticalAlign=middle;resizable=0;points=[];" connectable="0" vertex="1" parent="JfAFxv9XHzVIEhKvCDaF-13">
          <mxGeometry x="-0.2564" relative="1" as="geometry">
            <mxPoint x="-2" y="-10" as="offset" />
          </mxGeometry>
        </mxCell>
        <mxCell id="JfAFxv9XHzVIEhKvCDaF-2" value="1.2" style="ellipse;whiteSpace=wrap;html=1;aspect=fixed;" vertex="1" parent="1">
          <mxGeometry x="110" y="210" width="40" height="40" as="geometry" />
        </mxCell>
        <mxCell id="JfAFxv9XHzVIEhKvCDaF-11" style="edgeStyle=orthogonalEdgeStyle;rounded=0;orthogonalLoop=1;jettySize=auto;html=1;entryX=0;entryY=0.5;entryDx=0;entryDy=0;fillColor=#f8cecc;strokeColor=#b85450;" edge="1" parent="1" source="JfAFxv9XHzVIEhKvCDaF-3" target="JfAFxv9XHzVIEhKvCDaF-4">
          <mxGeometry relative="1" as="geometry" />
        </mxCell>
        <mxCell id="1YkeTyR81IGIItmo_7Jy-3" value="3" style="edgeLabel;html=1;align=center;verticalAlign=middle;resizable=0;points=[];" connectable="0" vertex="1" parent="JfAFxv9XHzVIEhKvCDaF-11">
          <mxGeometry x="-0.2606" y="-1" relative="1" as="geometry">
            <mxPoint y="-10" as="offset" />
          </mxGeometry>
        </mxCell>
        <mxCell id="JfAFxv9XHzVIEhKvCDaF-3" value="1.2.1" style="ellipse;whiteSpace=wrap;html=1;aspect=fixed;" vertex="1" parent="1">
          <mxGeometry x="180" y="207.5" width="42.5" height="42.5" as="geometry" />
        </mxCell>
        <mxCell id="1YkeTyR81IGIItmo_7Jy-7" style="edgeStyle=orthogonalEdgeStyle;rounded=0;orthogonalLoop=1;jettySize=auto;html=1;entryX=0;entryY=0.5;entryDx=0;entryDy=0;fillColor=#f8cecc;strokeColor=#b85450;" edge="1" parent="1" source="JfAFxv9XHzVIEhKvCDaF-4" target="1YkeTyR81IGIItmo_7Jy-6">
          <mxGeometry relative="1" as="geometry" />
        </mxCell>
        <mxCell id="1YkeTyR81IGIItmo_7Jy-54" value="3" style="edgeLabel;html=1;align=center;verticalAlign=middle;resizable=0;points=[];" connectable="0" vertex="1" parent="1YkeTyR81IGIItmo_7Jy-7">
          <mxGeometry x="0.0419" y="6" relative="1" as="geometry">
            <mxPoint x="-2" y="-2" as="offset" />
          </mxGeometry>
        </mxCell>
        <mxCell id="JfAFxv9XHzVIEhKvCDaF-4" value="1.2.2" style="ellipse;whiteSpace=wrap;html=1;aspect=fixed;" vertex="1" parent="1">
          <mxGeometry x="250" y="206.88" width="43.12" height="43.12" as="geometry" />
        </mxCell>
        <mxCell id="uwlrSGn0OlOReladuPmx-13" style="rounded=0;orthogonalLoop=1;jettySize=auto;html=1;entryX=0;entryY=0.5;entryDx=0;entryDy=0;" edge="1" parent="1" source="JfAFxv9XHzVIEhKvCDaF-5" target="uwlrSGn0OlOReladuPmx-8">
          <mxGeometry relative="1" as="geometry" />
        </mxCell>
        <mxCell id="JfAFxv9XHzVIEhKvCDaF-5" value="1.3" style="ellipse;whiteSpace=wrap;html=1;aspect=fixed;" vertex="1" parent="1">
          <mxGeometry x="414.37" y="208.13" width="41.87" height="41.87" as="geometry" />
        </mxCell>
        <mxCell id="1YkeTyR81IGIItmo_7Jy-9" style="edgeStyle=orthogonalEdgeStyle;rounded=0;orthogonalLoop=1;jettySize=auto;html=1;fillColor=#f8cecc;strokeColor=#b85450;entryX=0;entryY=0.5;entryDx=0;entryDy=0;" edge="1" parent="1" source="1YkeTyR81IGIItmo_7Jy-6" target="JfAFxv9XHzVIEhKvCDaF-5">
          <mxGeometry relative="1" as="geometry">
            <mxPoint x="409.9999999999999" y="229.07" as="targetPoint" />
          </mxGeometry>
        </mxCell>
        <mxCell id="1YkeTyR81IGIItmo_7Jy-10" value="1" style="edgeLabel;html=1;align=center;verticalAlign=middle;resizable=0;points=[];" connectable="0" vertex="1" parent="1YkeTyR81IGIItmo_7Jy-9">
          <mxGeometry x="0.0426" relative="1" as="geometry">
            <mxPoint x="-1" y="-10" as="offset" />
          </mxGeometry>
        </mxCell>
        <mxCell id="uwlrSGn0OlOReladuPmx-2" style="rounded=0;orthogonalLoop=1;jettySize=auto;html=1;entryX=0;entryY=0.5;entryDx=0;entryDy=0;" edge="1" parent="1" source="1YkeTyR81IGIItmo_7Jy-6" target="uwlrSGn0OlOReladuPmx-1">
          <mxGeometry relative="1" as="geometry" />
        </mxCell>
        <mxCell id="1YkeTyR81IGIItmo_7Jy-6" value="1.2.3" style="ellipse;whiteSpace=wrap;html=1;aspect=fixed;" vertex="1" parent="1">
          <mxGeometry x="330" y="209.07" width="40" height="40" as="geometry" />
        </mxCell>
        <mxCell id="1YkeTyR81IGIItmo_7Jy-50" value="&lt;span style=&quot;font-size: 8px;&quot;&gt;0/0&lt;/span&gt;" style="text;html=1;align=center;verticalAlign=middle;resizable=0;points=[];autosize=1;strokeColor=none;fillColor=none;" vertex="1" parent="1">
          <mxGeometry x="40" y="240" width="30" height="30" as="geometry" />
        </mxCell>
        <mxCell id="1YkeTyR81IGIItmo_7Jy-51" value="&lt;font style=&quot;font-size: 8px;&quot;&gt;1/1&lt;/font&gt;" style="text;html=1;align=center;verticalAlign=middle;resizable=0;points=[];autosize=1;strokeColor=none;fillColor=none;" vertex="1" parent="1">
          <mxGeometry x="115" y="240" width="30" height="30" as="geometry" />
        </mxCell>
        <mxCell id="1YkeTyR81IGIItmo_7Jy-52" value="&lt;font style=&quot;font-size: 8px;&quot;&gt;4/4&lt;/font&gt;" style="text;html=1;align=center;verticalAlign=middle;resizable=0;points=[];autosize=1;strokeColor=none;fillColor=none;" vertex="1" parent="1">
          <mxGeometry x="186.25" y="240" width="30" height="30" as="geometry" />
        </mxCell>
        <mxCell id="1YkeTyR81IGIItmo_7Jy-53" value="&lt;font style=&quot;font-size: 8px;&quot;&gt;7/7&lt;/font&gt;" style="text;html=1;align=center;verticalAlign=middle;resizable=0;points=[];autosize=1;strokeColor=none;fillColor=none;" vertex="1" parent="1">
          <mxGeometry x="256.56" y="240" width="30" height="30" as="geometry" />
        </mxCell>
        <mxCell id="1YkeTyR81IGIItmo_7Jy-55" value="&lt;font style=&quot;font-size: 8px;&quot;&gt;10/10&lt;/font&gt;" style="text;html=1;align=center;verticalAlign=middle;resizable=0;points=[];autosize=1;strokeColor=none;fillColor=none;" vertex="1" parent="1">
          <mxGeometry x="330" y="190" width="40" height="30" as="geometry" />
        </mxCell>
        <mxCell id="1YkeTyR81IGIItmo_7Jy-56" value="&lt;font style=&quot;font-size: 8px;&quot;&gt;0/11&lt;/font&gt;" style="text;html=1;align=center;verticalAlign=middle;resizable=0;points=[];autosize=1;strokeColor=none;fillColor=none;" vertex="1" parent="1">
          <mxGeometry x="414.37" y="190" width="40" height="30" as="geometry" />
        </mxCell>
        <mxCell id="z2k_7jXKvmVWs2d7WAhr-1" value="&lt;div style=&quot;font-size: 8px;&quot;&gt;0&lt;/div&gt;" style="text;html=1;align=center;verticalAlign=middle;resizable=0;points=[];autosize=1;strokeColor=none;fillColor=none;" vertex="1" parent="1">
          <mxGeometry x="40" y="260" width="30" height="20" as="geometry" />
        </mxCell>
        <mxCell id="z2k_7jXKvmVWs2d7WAhr-2" value="&lt;div style=&quot;font-size: 8px;&quot;&gt;0&lt;/div&gt;" style="text;html=1;align=center;verticalAlign=middle;resizable=0;points=[];autosize=1;strokeColor=none;fillColor=none;" vertex="1" parent="1">
          <mxGeometry x="115" y="260" width="30" height="20" as="geometry" />
        </mxCell>
        <mxCell id="z2k_7jXKvmVWs2d7WAhr-3" value="&lt;div style=&quot;font-size: 8px;&quot;&gt;0&lt;/div&gt;" style="text;html=1;align=center;verticalAlign=middle;resizable=0;points=[];autosize=1;strokeColor=none;fillColor=none;" vertex="1" parent="1">
          <mxGeometry x="186.25" y="260" width="30" height="20" as="geometry" />
        </mxCell>
        <mxCell id="z2k_7jXKvmVWs2d7WAhr-4" value="&lt;div style=&quot;font-size: 8px;&quot;&gt;0&lt;/div&gt;" style="text;html=1;align=center;verticalAlign=middle;resizable=0;points=[];autosize=1;strokeColor=none;fillColor=none;" vertex="1" parent="1">
          <mxGeometry x="256.56" y="260" width="30" height="20" as="geometry" />
        </mxCell>
        <mxCell id="z2k_7jXKvmVWs2d7WAhr-5" value="&lt;div style=&quot;font-size: 8px;&quot;&gt;2&lt;/div&gt;" style="text;html=1;align=center;verticalAlign=middle;resizable=0;points=[];autosize=1;strokeColor=none;fillColor=none;" vertex="1" parent="1">
          <mxGeometry x="350" y="200" width="30" height="20" as="geometry" />
        </mxCell>
        <mxCell id="uwlrSGn0OlOReladuPmx-16" style="rounded=0;orthogonalLoop=1;jettySize=auto;html=1;" edge="1" parent="1" source="uwlrSGn0OlOReladuPmx-1" target="uwlrSGn0OlOReladuPmx-15">
          <mxGeometry relative="1" as="geometry" />
        </mxCell>
        <mxCell id="uwlrSGn0OlOReladuPmx-1" value="1.5" style="ellipse;whiteSpace=wrap;html=1;aspect=fixed;" vertex="1" parent="1">
          <mxGeometry x="416.24" y="280" width="40" height="40" as="geometry" />
        </mxCell>
        <mxCell id="uwlrSGn0OlOReladuPmx-14" style="rounded=0;orthogonalLoop=1;jettySize=auto;html=1;entryX=0;entryY=0.5;entryDx=0;entryDy=0;" edge="1" parent="1" source="uwlrSGn0OlOReladuPmx-3" target="uwlrSGn0OlOReladuPmx-11">
          <mxGeometry relative="1" as="geometry" />
        </mxCell>
        <mxCell id="uwlrSGn0OlOReladuPmx-3" value="1.4" style="ellipse;whiteSpace=wrap;html=1;aspect=fixed;" vertex="1" parent="1">
          <mxGeometry x="620" y="207.5" width="40" height="40" as="geometry" />
        </mxCell>
        <mxCell id="uwlrSGn0OlOReladuPmx-18" style="rounded=0;orthogonalLoop=1;jettySize=auto;html=1;" edge="1" parent="1" source="uwlrSGn0OlOReladuPmx-5" target="uwlrSGn0OlOReladuPmx-17">
          <mxGeometry relative="1" as="geometry" />
        </mxCell>
        <mxCell id="uwlrSGn0OlOReladuPmx-5" value="1.6" style="ellipse;whiteSpace=wrap;html=1;aspect=fixed;" vertex="1" parent="1">
          <mxGeometry x="620" y="290.62" width="40" height="40" as="geometry" />
        </mxCell>
        <mxCell id="uwlrSGn0OlOReladuPmx-8" value="1.3.1" style="ellipse;whiteSpace=wrap;html=1;aspect=fixed;" vertex="1" parent="1">
          <mxGeometry x="500" y="210" width="40" height="40" as="geometry" />
        </mxCell>
        <mxCell id="uwlrSGn0OlOReladuPmx-25" style="edgeStyle=orthogonalEdgeStyle;rounded=0;orthogonalLoop=1;jettySize=auto;html=1;" edge="1" parent="1" source="uwlrSGn0OlOReladuPmx-11" target="uwlrSGn0OlOReladuPmx-24">
          <mxGeometry relative="1" as="geometry" />
        </mxCell>
        <mxCell id="uwlrSGn0OlOReladuPmx-11" value="1.4.1" style="ellipse;whiteSpace=wrap;html=1;aspect=fixed;" vertex="1" parent="1">
          <mxGeometry x="710" y="208.75" width="40" height="40" as="geometry" />
        </mxCell>
        <mxCell id="uwlrSGn0OlOReladuPmx-21" style="rounded=0;orthogonalLoop=1;jettySize=auto;html=1;entryX=0;entryY=1;entryDx=0;entryDy=0;" edge="1" parent="1" source="uwlrSGn0OlOReladuPmx-15" target="uwlrSGn0OlOReladuPmx-19">
          <mxGeometry relative="1" as="geometry" />
        </mxCell>
        <mxCell id="uwlrSGn0OlOReladuPmx-15" value="1.5.1" style="ellipse;whiteSpace=wrap;html=1;aspect=fixed;" vertex="1" parent="1">
          <mxGeometry x="500" y="280" width="40" height="40" as="geometry" />
        </mxCell>
        <mxCell id="uwlrSGn0OlOReladuPmx-26" style="edgeStyle=orthogonalEdgeStyle;rounded=0;orthogonalLoop=1;jettySize=auto;html=1;entryX=0;entryY=0.5;entryDx=0;entryDy=0;" edge="1" parent="1" source="uwlrSGn0OlOReladuPmx-17" target="uwlrSGn0OlOReladuPmx-24">
          <mxGeometry relative="1" as="geometry" />
        </mxCell>
        <mxCell id="uwlrSGn0OlOReladuPmx-17" value="1.6.1" style="ellipse;whiteSpace=wrap;html=1;aspect=fixed;" vertex="1" parent="1">
          <mxGeometry x="710" y="290.62" width="40" height="40" as="geometry" />
        </mxCell>
        <mxCell id="uwlrSGn0OlOReladuPmx-22" style="rounded=0;orthogonalLoop=1;jettySize=auto;html=1;entryX=0;entryY=1;entryDx=0;entryDy=0;dashed=1;" edge="1" parent="1" source="uwlrSGn0OlOReladuPmx-19" target="uwlrSGn0OlOReladuPmx-3">
          <mxGeometry relative="1" as="geometry" />
        </mxCell>
        <mxCell id="uwlrSGn0OlOReladuPmx-23" style="rounded=0;orthogonalLoop=1;jettySize=auto;html=1;entryX=0;entryY=0.5;entryDx=0;entryDy=0;dashed=1;" edge="1" parent="1" source="uwlrSGn0OlOReladuPmx-19" target="uwlrSGn0OlOReladuPmx-5">
          <mxGeometry relative="1" as="geometry" />
        </mxCell>
        <mxCell id="uwlrSGn0OlOReladuPmx-19" value="" style="ellipse;whiteSpace=wrap;html=1;aspect=fixed;" vertex="1" parent="1">
          <mxGeometry x="560" y="247.5" width="40" height="40" as="geometry" />
        </mxCell>
        <mxCell id="uwlrSGn0OlOReladuPmx-20" style="rounded=0;orthogonalLoop=1;jettySize=auto;html=1;entryX=0.102;entryY=0.271;entryDx=0;entryDy=0;entryPerimeter=0;" edge="1" parent="1" source="uwlrSGn0OlOReladuPmx-8" target="uwlrSGn0OlOReladuPmx-19">
          <mxGeometry relative="1" as="geometry" />
        </mxCell>
        <mxCell id="uwlrSGn0OlOReladuPmx-29" style="edgeStyle=orthogonalEdgeStyle;rounded=0;orthogonalLoop=1;jettySize=auto;html=1;entryX=0;entryY=0.5;entryDx=0;entryDy=0;" edge="1" parent="1" source="uwlrSGn0OlOReladuPmx-24" target="uwlrSGn0OlOReladuPmx-27">
          <mxGeometry relative="1" as="geometry" />
        </mxCell>
        <mxCell id="uwlrSGn0OlOReladuPmx-30" style="edgeStyle=orthogonalEdgeStyle;rounded=0;orthogonalLoop=1;jettySize=auto;html=1;entryX=0;entryY=0.5;entryDx=0;entryDy=0;" edge="1" parent="1" source="uwlrSGn0OlOReladuPmx-24" target="uwlrSGn0OlOReladuPmx-28">
          <mxGeometry relative="1" as="geometry">
            <Array as="points">
              <mxPoint y="400" />
              <mxPoint y="520" />
            </Array>
          </mxGeometry>
        </mxCell>
        <mxCell id="uwlrSGn0OlOReladuPmx-24" value="1.8" style="ellipse;whiteSpace=wrap;html=1;aspect=fixed;" vertex="1" parent="1">
          <mxGeometry x="760" y="380" width="40" height="40" as="geometry" />
        </mxCell>
        <mxCell id="uwlrSGn0OlOReladuPmx-32" style="rounded=0;orthogonalLoop=1;jettySize=auto;html=1;" edge="1" parent="1" source="uwlrSGn0OlOReladuPmx-27" target="uwlrSGn0OlOReladuPmx-31">
          <mxGeometry relative="1" as="geometry" />
        </mxCell>
        <mxCell id="uwlrSGn0OlOReladuPmx-27" value="2.1" style="ellipse;whiteSpace=wrap;html=1;aspect=fixed;" vertex="1" parent="1">
          <mxGeometry x="60" y="430" width="40" height="40" as="geometry" />
        </mxCell>
        <mxCell id="uwlrSGn0OlOReladuPmx-33" style="rounded=0;orthogonalLoop=1;jettySize=auto;html=1;entryX=0;entryY=0.5;entryDx=0;entryDy=0;" edge="1" parent="1" source="uwlrSGn0OlOReladuPmx-28" target="uwlrSGn0OlOReladuPmx-31">
          <mxGeometry relative="1" as="geometry" />
        </mxCell>
        <mxCell id="uwlrSGn0OlOReladuPmx-28" value="2.2" style="ellipse;whiteSpace=wrap;html=1;aspect=fixed;" vertex="1" parent="1">
          <mxGeometry x="60" y="500" width="40" height="40" as="geometry" />
        </mxCell>
        <mxCell id="uwlrSGn0OlOReladuPmx-35" style="edgeStyle=orthogonalEdgeStyle;rounded=0;orthogonalLoop=1;jettySize=auto;html=1;entryX=0;entryY=0.5;entryDx=0;entryDy=0;" edge="1" parent="1" source="uwlrSGn0OlOReladuPmx-31" target="uwlrSGn0OlOReladuPmx-34">
          <mxGeometry relative="1" as="geometry" />
        </mxCell>
        <mxCell id="uwlrSGn0OlOReladuPmx-31" value="2.3" style="ellipse;whiteSpace=wrap;html=1;aspect=fixed;" vertex="1" parent="1">
          <mxGeometry x="130" y="460" width="40" height="40" as="geometry" />
        </mxCell>
        <mxCell id="uwlrSGn0OlOReladuPmx-37" style="rounded=0;orthogonalLoop=1;jettySize=auto;html=1;entryX=0;entryY=0.5;entryDx=0;entryDy=0;" edge="1" parent="1" source="uwlrSGn0OlOReladuPmx-34" target="uwlrSGn0OlOReladuPmx-36">
          <mxGeometry relative="1" as="geometry" />
        </mxCell>
        <mxCell id="uwlrSGn0OlOReladuPmx-39" style="rounded=0;orthogonalLoop=1;jettySize=auto;html=1;entryX=0;entryY=0.5;entryDx=0;entryDy=0;" edge="1" parent="1" source="uwlrSGn0OlOReladuPmx-34" target="uwlrSGn0OlOReladuPmx-38">
          <mxGeometry relative="1" as="geometry" />
        </mxCell>
        <mxCell id="uwlrSGn0OlOReladuPmx-34" value="2.3.1" style="ellipse;whiteSpace=wrap;html=1;aspect=fixed;" vertex="1" parent="1">
          <mxGeometry x="216.25" y="460" width="40" height="40" as="geometry" />
        </mxCell>
        <mxCell id="uwlrSGn0OlOReladuPmx-41" style="rounded=0;orthogonalLoop=1;jettySize=auto;html=1;" edge="1" parent="1" source="uwlrSGn0OlOReladuPmx-36" target="uwlrSGn0OlOReladuPmx-40">
          <mxGeometry relative="1" as="geometry" />
        </mxCell>
        <mxCell id="uwlrSGn0OlOReladuPmx-36" value="2.4" style="ellipse;whiteSpace=wrap;html=1;aspect=fixed;" vertex="1" parent="1">
          <mxGeometry x="293.12" y="430" width="40" height="40" as="geometry" />
        </mxCell>
        <mxCell id="uwlrSGn0OlOReladuPmx-42" style="rounded=0;orthogonalLoop=1;jettySize=auto;html=1;entryX=0;entryY=0.5;entryDx=0;entryDy=0;" edge="1" parent="1" source="uwlrSGn0OlOReladuPmx-38" target="uwlrSGn0OlOReladuPmx-40">
          <mxGeometry relative="1" as="geometry" />
        </mxCell>
        <mxCell id="uwlrSGn0OlOReladuPmx-38" value="2.5" style="ellipse;whiteSpace=wrap;html=1;aspect=fixed;" vertex="1" parent="1">
          <mxGeometry x="293.12" y="500" width="40" height="40" as="geometry" />
        </mxCell>
        <mxCell id="uwlrSGn0OlOReladuPmx-44" style="edgeStyle=orthogonalEdgeStyle;rounded=0;orthogonalLoop=1;jettySize=auto;html=1;entryX=0;entryY=0.5;entryDx=0;entryDy=0;" edge="1" parent="1" source="uwlrSGn0OlOReladuPmx-40" target="uwlrSGn0OlOReladuPmx-43">
          <mxGeometry relative="1" as="geometry" />
        </mxCell>
        <mxCell id="uwlrSGn0OlOReladuPmx-40" value="2.6" style="ellipse;whiteSpace=wrap;html=1;aspect=fixed;" vertex="1" parent="1">
          <mxGeometry x="370" y="462.5" width="35" height="35" as="geometry" />
        </mxCell>
        <mxCell id="uwlrSGn0OlOReladuPmx-49" style="rounded=0;orthogonalLoop=1;jettySize=auto;html=1;entryX=0;entryY=0.5;entryDx=0;entryDy=0;" edge="1" parent="1" source="uwlrSGn0OlOReladuPmx-43" target="uwlrSGn0OlOReladuPmx-45">
          <mxGeometry relative="1" as="geometry" />
        </mxCell>
        <mxCell id="uwlrSGn0OlOReladuPmx-50" style="rounded=0;orthogonalLoop=1;jettySize=auto;html=1;entryX=0;entryY=0.5;entryDx=0;entryDy=0;" edge="1" parent="1" source="uwlrSGn0OlOReladuPmx-43" target="uwlrSGn0OlOReladuPmx-46">
          <mxGeometry relative="1" as="geometry" />
        </mxCell>
        <mxCell id="uwlrSGn0OlOReladuPmx-43" value="2.7" style="ellipse;whiteSpace=wrap;html=1;aspect=fixed;" vertex="1" parent="1">
          <mxGeometry x="460" y="460" width="40" height="40" as="geometry" />
        </mxCell>
        <mxCell id="uwlrSGn0OlOReladuPmx-51" style="rounded=0;orthogonalLoop=1;jettySize=auto;html=1;" edge="1" parent="1" source="uwlrSGn0OlOReladuPmx-45" target="uwlrSGn0OlOReladuPmx-47">
          <mxGeometry relative="1" as="geometry" />
        </mxCell>
        <mxCell id="uwlrSGn0OlOReladuPmx-45" value="3.1" style="ellipse;whiteSpace=wrap;html=1;aspect=fixed;" vertex="1" parent="1">
          <mxGeometry x="540" y="430" width="40" height="40" as="geometry" />
        </mxCell>
        <mxCell id="uwlrSGn0OlOReladuPmx-52" style="rounded=0;orthogonalLoop=1;jettySize=auto;html=1;" edge="1" parent="1" source="uwlrSGn0OlOReladuPmx-46" target="uwlrSGn0OlOReladuPmx-47">
          <mxGeometry relative="1" as="geometry" />
        </mxCell>
        <mxCell id="uwlrSGn0OlOReladuPmx-46" value="3.2" style="ellipse;whiteSpace=wrap;html=1;aspect=fixed;" vertex="1" parent="1">
          <mxGeometry x="540" y="505" width="40" height="40" as="geometry" />
        </mxCell>
        <mxCell id="uwlrSGn0OlOReladuPmx-53" style="edgeStyle=orthogonalEdgeStyle;rounded=0;orthogonalLoop=1;jettySize=auto;html=1;entryX=0;entryY=0.5;entryDx=0;entryDy=0;" edge="1" parent="1" source="uwlrSGn0OlOReladuPmx-47" target="uwlrSGn0OlOReladuPmx-48">
          <mxGeometry relative="1" as="geometry" />
        </mxCell>
        <mxCell id="uwlrSGn0OlOReladuPmx-47" value="3.3" style="ellipse;whiteSpace=wrap;html=1;aspect=fixed;" vertex="1" parent="1">
          <mxGeometry x="620" y="470" width="40" height="40" as="geometry" />
        </mxCell>
        <mxCell id="uwlrSGn0OlOReladuPmx-48" value="3.4" style="ellipse;whiteSpace=wrap;html=1;aspect=fixed;" vertex="1" parent="1">
          <mxGeometry x="710" y="470" width="40" height="40" as="geometry" />
        </mxCell>
        <mxCell id="aIBbrglREpWUiEYsW_HD-2" value="1" style="text;html=1;align=center;verticalAlign=middle;resizable=0;points=[];autosize=1;strokeColor=none;fillColor=none;" vertex="1" parent="1">
          <mxGeometry x="380" y="252.5" width="30" height="30" as="geometry" />
        </mxCell>
        <mxCell id="aIBbrglREpWUiEYsW_HD-3" value="&lt;font style=&quot;font-size: 8px;&quot;&gt;0/11&lt;/font&gt;" style="text;html=1;align=center;verticalAlign=middle;resizable=0;points=[];autosize=1;strokeColor=none;fillColor=none;" vertex="1" parent="1">
          <mxGeometry x="416.24" y="260" width="40" height="30" as="geometry" />
        </mxCell>
        <mxCell id="aIBbrglREpWUiEYsW_HD-4" value="&lt;font style=&quot;font-size: 8px;&quot;&gt;23&lt;/font&gt;" style="text;html=1;align=center;verticalAlign=middle;resizable=0;points=[];autosize=1;strokeColor=none;fillColor=none;" vertex="1" parent="1">
          <mxGeometry x="459.37" y="207.5" width="30" height="30" as="geometry" />
        </mxCell>
        <mxCell id="aIBbrglREpWUiEYsW_HD-5" value="&lt;div style=&quot;font-size: 9px;&quot;&gt;23&lt;br&gt;&lt;/div&gt;&lt;div&gt;&lt;br&gt;&lt;/div&gt;" style="text;html=1;align=center;verticalAlign=middle;resizable=0;points=[];autosize=1;strokeColor=none;fillColor=none;fontSize=11;" vertex="1" parent="1">
          <mxGeometry x="459.37" y="280" width="30" height="40" as="geometry" />
        </mxCell>
      </root>
    </mxGraphModel>
  </diagram>
</mxfile>
